<svg id="visual" preserveAspectRatio="none" viewBox="0 0 900 600" width="900" height="600" xmlns="http://www.w3.org/2000/svg" xmlns:xlink="http://www.w3.org/1999/xlink" version="1.1"><path d="M0 268L13.7 234.3C27.3 200.7 54.7 133.3 82 117C109.3 100.7 136.7 135.3 163.8 157.8C191 180.3 218 190.7 245.2 208.8C272.3 227 299.7 253 327 243.8C354.3 234.7 381.7 190.3 409 167.8C436.3 145.3 463.7 144.7 491 134.2C518.3 123.7 545.7 103.3 573 114.2C600.3 125 627.7 167 654.8 168.5C682 170 709 131 736.2 134.8C763.3 138.7 790.7 185.3 818 215.3C845.3 245.3 872.7 258.7 886.3 265.3L900 272L900 601L886.3 601C872.7 601 845.3 601 818 601C790.7 601 763.3 601 736.2 601C709 601 682 601 654.8 601C627.7 601 600.3 601 573 601C545.7 601 518.3 601 491 601C463.7 601 436.3 601 409 601C381.7 601 354.3 601 327 601C299.7 601 272.3 601 245.2 601C218 601 191 601 163.8 601C136.7 601 109.3 601 82 601C54.7 601 27.3 601 13.7 601L0 601Z" fill="#0099ff"></path><path d="M0 415L13.7 412.5C27.3 410 54.7 405 82 381.5C109.3 358 136.7 316 163.8 304.3C191 292.7 218 311.3 245.2 319.8C272.3 328.3 299.7 326.7 327 309.3C354.3 292 381.7 259 409 263.2C436.3 267.3 463.7 308.7 491 314.7C518.3 320.7 545.7 291.3 573 286.2C600.3 281 627.7 300 654.8 318.3C682 336.7 709 354.3 736.2 360C763.3 365.7 790.7 359.3 818 351.8C845.3 344.3 872.7 335.7 886.3 331.3L900 327L900 601L886.3 601C872.7 601 845.3 601 818 601C790.7 601 763.3 601 736.2 601C709 601 682 601 654.8 601C627.7 601 600.3 601 573 601C545.7 601 518.3 601 491 601C463.7 601 436.3 601 409 601C381.7 601 354.3 601 327 601C299.7 601 272.3 601 245.2 601C218 601 191 601 163.8 601C136.7 601 109.3 601 82 601C54.7 601 27.3 601 13.7 601L0 601Z" fill="#005188"></path><path d="M0 488L13.7 487.5C27.3 487 54.7 486 82 467C109.3 448 136.7 411 163.8 403.2C191 395.3 218 416.7 245.2 442.8C272.3 469 299.7 500 327 496.3C354.3 492.7 381.7 454.3 409 426.5C436.3 398.7 463.7 381.3 491 377.2C518.3 373 545.7 382 573 407.8C600.3 433.7 627.7 476.3 654.8 487.5C682 498.7 709 478.3 736.2 463.5C763.3 448.7 790.7 439.3 818 451.5C845.3 463.7 872.7 497.3 886.3 514.2L900 531L900 601L886.3 601C872.7 601 845.3 601 818 601C790.7 601 763.3 601 736.2 601C709 601 682 601 654.8 601C627.7 601 600.3 601 573 601C545.7 601 518.3 601 491 601C463.7 601 436.3 601 409 601C381.7 601 354.3 601 327 601C299.7 601 272.3 601 245.2 601C218 601 191 601 163.8 601C136.7 601 109.3 601 82 601C54.7 601 27.3 601 13.7 601L0 601Z" fill="#001122"></path></svg>