<svg id="visual" preserveAspectRatio="none" viewBox="0 0 900 600" width="900" height="600" xmlns="http://www.w3.org/2000/svg" xmlns:xlink="http://www.w3.org/1999/xlink" version="1.1"><path d="M0 200L8.8 199.5C17.7 199 35.3 198 53 190C70.7 182 88.3 167 106 166C123.7 165 141.3 178 159 182.5C176.7 187 194.3 183 212 180C229.7 177 247.3 175 265 177.2C282.7 179.3 300.3 185.7 318 179C335.7 172.3 353.3 152.7 371 145.2C388.7 137.7 406.3 142.3 423.8 143.7C441.3 145 458.7 143 476.2 149.5C493.7 156 511.3 171 529 177.5C546.7 184 564.3 182 582 176.3C599.7 170.7 617.3 161.3 635 157.2C652.7 153 670.3 154 688 154C705.7 154 723.3 153 741 157.5C758.7 162 776.3 172 794 176.5C811.7 181 829.3 180 847 181.7C864.7 183.3 882.3 187.7 891.2 189.8L900 192L900 601L891.2 601C882.3 601 864.7 601 847 601C829.3 601 811.7 601 794 601C776.3 601 758.7 601 741 601C723.3 601 705.7 601 688 601C670.3 601 652.7 601 635 601C617.3 601 599.7 601 582 601C564.3 601 546.7 601 529 601C511.3 601 493.7 601 476.2 601C458.7 601 441.3 601 423.8 601C406.3 601 388.7 601 371 601C353.3 601 335.7 601 318 601C300.3 601 282.7 601 265 601C247.3 601 229.7 601 212 601C194.3 601 176.7 601 159 601C141.3 601 123.7 601 106 601C88.3 601 70.7 601 53 601C35.3 601 17.7 601 8.8 601L0 601Z" fill="#f1e4e1"></path><path d="M0 258L8.8 257.8C17.7 257.7 35.3 257.3 53 251.3C70.7 245.3 88.3 233.7 106 233.7C123.7 233.7 141.3 245.3 159 249.5C176.7 253.7 194.3 250.3 212 255.5C229.7 260.7 247.3 274.3 265 274.8C282.7 275.3 300.3 262.7 318 253.3C335.7 244 353.3 238 371 234.8C388.7 231.7 406.3 231.3 423.8 234.2C441.3 237 458.7 243 476.2 245C493.7 247 511.3 245 529 252C546.7 259 564.3 275 582 276.3C599.7 277.7 617.3 264.3 635 255C652.7 245.7 670.3 240.3 688 235.7C705.7 231 723.3 227 741 236C758.7 245 776.3 267 794 269.8C811.7 272.7 829.3 256.3 847 248C864.7 239.7 882.3 239.3 891.2 239.2L900 239L900 601L891.2 601C882.3 601 864.7 601 847 601C829.3 601 811.7 601 794 601C776.3 601 758.7 601 741 601C723.3 601 705.7 601 688 601C670.3 601 652.7 601 635 601C617.3 601 599.7 601 582 601C564.3 601 546.7 601 529 601C511.3 601 493.7 601 476.2 601C458.7 601 441.3 601 423.8 601C406.3 601 388.7 601 371 601C353.3 601 335.7 601 318 601C300.3 601 282.7 601 265 601C247.3 601 229.7 601 212 601C194.3 601 176.7 601 159 601C141.3 601 123.7 601 106 601C88.3 601 70.7 601 53 601C35.3 601 17.7 601 8.8 601L0 601Z" fill="#e5cbc5"></path><path d="M0 365L8.8 354.7C17.7 344.3 35.3 323.7 53 317.3C70.7 311 88.3 319 106 327.3C123.7 335.7 141.3 344.3 159 341.2C176.7 338 194.3 323 212 316.2C229.7 309.3 247.3 310.7 265 319.3C282.7 328 300.3 344 318 353C335.7 362 353.3 364 371 354.5C388.7 345 406.3 324 423.8 323.8C441.3 323.7 458.7 344.3 476.2 347C493.7 349.7 511.3 334.3 529 334.7C546.7 335 564.3 351 582 350.7C599.7 350.3 617.3 333.7 635 325C652.7 316.3 670.3 315.7 688 315.3C705.7 315 723.3 315 741 324.5C758.7 334 776.3 353 794 362.8C811.7 372.7 829.3 373.3 847 367.2C864.7 361 882.3 348 891.2 341.5L900 335L900 601L891.2 601C882.3 601 864.7 601 847 601C829.3 601 811.7 601 794 601C776.3 601 758.7 601 741 601C723.3 601 705.7 601 688 601C670.3 601 652.7 601 635 601C617.3 601 599.7 601 582 601C564.3 601 546.7 601 529 601C511.3 601 493.7 601 476.2 601C458.7 601 441.3 601 423.8 601C406.3 601 388.7 601 371 601C353.3 601 335.7 601 318 601C300.3 601 282.7 601 265 601C247.3 601 229.7 601 212 601C194.3 601 176.7 601 159 601C141.3 601 123.7 601 106 601C88.3 601 70.7 601 53 601C35.3 601 17.7 601 8.8 601L0 601Z" fill="#d8b3aa"></path><path d="M0 434L8.8 430C17.7 426 35.3 418 53 414.7C70.7 411.3 88.3 412.7 106 418.5C123.7 424.3 141.3 434.7 159 436.5C176.7 438.3 194.3 431.7 212 429.5C229.7 427.3 247.3 429.7 265 425C282.7 420.3 300.3 408.7 318 409.3C335.7 410 353.3 423 371 433.2C388.7 443.3 406.3 450.7 423.8 454.3C441.3 458 458.7 458 476.2 453.7C493.7 449.3 511.3 440.7 529 432.3C546.7 424 564.3 416 582 413.7C599.7 411.3 617.3 414.7 635 414.8C652.7 415 670.3 412 688 418.7C705.7 425.3 723.3 441.7 741 444C758.7 446.3 776.3 434.7 794 434.5C811.7 434.3 829.3 445.7 847 443C864.7 440.3 882.3 423.7 891.2 415.3L900 407L900 601L891.2 601C882.3 601 864.7 601 847 601C829.3 601 811.7 601 794 601C776.3 601 758.7 601 741 601C723.3 601 705.7 601 688 601C670.3 601 652.7 601 635 601C617.3 601 599.7 601 582 601C564.3 601 546.7 601 529 601C511.3 601 493.7 601 476.2 601C458.7 601 441.3 601 423.8 601C406.3 601 388.7 601 371 601C353.3 601 335.7 601 318 601C300.3 601 282.7 601 265 601C247.3 601 229.7 601 212 601C194.3 601 176.7 601 159 601C141.3 601 123.7 601 106 601C88.3 601 70.7 601 53 601C35.3 601 17.7 601 8.8 601L0 601Z" fill="#ca9b90"></path><path d="M0 475L8.8 475.8C17.7 476.7 35.3 478.3 53 484.3C70.7 490.3 88.3 500.7 106 508.7C123.7 516.7 141.3 522.3 159 519.7C176.7 517 194.3 506 212 503.3C229.7 500.7 247.3 506.3 265 503.8C282.7 501.3 300.3 490.7 318 490C335.7 489.3 353.3 498.7 371 509.2C388.7 519.7 406.3 531.3 423.8 530.7C441.3 530 458.7 517 476.2 508.3C493.7 499.7 511.3 495.3 529 496.5C546.7 497.7 564.3 504.3 582 511C599.7 517.7 617.3 524.3 635 523.7C652.7 523 670.3 515 688 507.8C705.7 500.7 723.3 494.3 741 490C758.7 485.7 776.3 483.3 794 490.8C811.7 498.3 829.3 515.7 847 521C864.7 526.3 882.3 519.7 891.2 516.3L900 513L900 601L891.2 601C882.3 601 864.7 601 847 601C829.3 601 811.7 601 794 601C776.3 601 758.7 601 741 601C723.3 601 705.7 601 688 601C670.3 601 652.7 601 635 601C617.3 601 599.7 601 582 601C564.3 601 546.7 601 529 601C511.3 601 493.7 601 476.2 601C458.7 601 441.3 601 423.8 601C406.3 601 388.7 601 371 601C353.3 601 335.7 601 318 601C300.3 601 282.7 601 265 601C247.3 601 229.7 601 212 601C194.3 601 176.7 601 159 601C141.3 601 123.7 601 106 601C88.3 601 70.7 601 53 601C35.3 601 17.7 601 8.8 601L0 601Z" fill="#bc8376"></path></svg>