<svg id="visual" preserveAspectRatio="none" viewBox="0 0 900 600" width="900" height="600" xmlns="http://www.w3.org/2000/svg" xmlns:xlink="http://www.w3.org/1999/xlink" version="1.1"><path d="M0 109L13.7 101.7C27.3 94.3 54.7 79.7 82 80.7C109.3 81.7 136.7 98.3 163.8 98.2C191 98 218 81 245.2 81.2C272.3 81.3 299.7 98.7 327 107.5C354.3 116.3 381.7 116.7 409 109.8C436.3 103 463.7 89 491 75.7C518.3 62.3 545.7 49.7 573 50C600.3 50.3 627.7 63.7 654.8 63.3C682 63 709 49 736.2 55.2C763.3 61.3 790.7 87.7 818 95.5C845.3 103.3 872.7 92.7 886.3 87.3L900 82L900 601L886.3 601C872.7 601 845.3 601 818 601C790.7 601 763.3 601 736.2 601C709 601 682 601 654.8 601C627.7 601 600.3 601 573 601C545.7 601 518.3 601 491 601C463.7 601 436.3 601 409 601C381.7 601 354.3 601 327 601C299.7 601 272.3 601 245.2 601C218 601 191 601 163.8 601C136.7 601 109.3 601 82 601C54.7 601 27.3 601 13.7 601L0 601Z" fill="#0099ff"></path><path d="M0 127L13.7 126.7C27.3 126.3 54.7 125.7 82 135.5C109.3 145.3 136.7 165.7 163.8 176.7C191 187.7 218 189.3 245.2 184.5C272.3 179.7 299.7 168.3 327 161.5C354.3 154.7 381.7 152.3 409 157.2C436.3 162 463.7 174 491 171.7C518.3 169.3 545.7 152.7 573 145C600.3 137.3 627.7 138.7 654.8 146.5C682 154.3 709 168.7 736.2 176.8C763.3 185 790.7 187 818 177.7C845.3 168.3 872.7 147.7 886.3 137.3L900 127L900 601L886.3 601C872.7 601 845.3 601 818 601C790.7 601 763.3 601 736.2 601C709 601 682 601 654.8 601C627.7 601 600.3 601 573 601C545.7 601 518.3 601 491 601C463.7 601 436.3 601 409 601C381.7 601 354.3 601 327 601C299.7 601 272.3 601 245.2 601C218 601 191 601 163.8 601C136.7 601 109.3 601 82 601C54.7 601 27.3 601 13.7 601L0 601Z" fill="#0080d6"></path><path d="M0 231L13.7 230C27.3 229 54.7 227 82 224.5C109.3 222 136.7 219 163.8 226.8C191 234.7 218 253.3 245.2 249.3C272.3 245.3 299.7 218.7 327 216.2C354.3 213.7 381.7 235.3 409 240C436.3 244.7 463.7 232.3 491 234.7C518.3 237 545.7 254 573 255.7C600.3 257.3 627.7 243.7 654.8 232.2C682 220.7 709 211.3 736.2 211.3C763.3 211.3 790.7 220.7 818 232C845.3 243.3 872.7 256.7 886.3 263.3L900 270L900 601L886.3 601C872.7 601 845.3 601 818 601C790.7 601 763.3 601 736.2 601C709 601 682 601 654.8 601C627.7 601 600.3 601 573 601C545.7 601 518.3 601 491 601C463.7 601 436.3 601 409 601C381.7 601 354.3 601 327 601C299.7 601 272.3 601 245.2 601C218 601 191 601 163.8 601C136.7 601 109.3 601 82 601C54.7 601 27.3 601 13.7 601L0 601Z" fill="#0068ae"></path><path d="M0 293L13.7 301.2C27.3 309.3 54.7 325.7 82 327.5C109.3 329.3 136.7 316.7 163.8 315.3C191 314 218 324 245.2 326C272.3 328 299.7 322 327 320.5C354.3 319 381.7 322 409 312.3C436.3 302.7 463.7 280.3 491 271.5C518.3 262.7 545.7 267.3 573 272C600.3 276.7 627.7 281.3 654.8 293.8C682 306.3 709 326.7 736.2 334.3C763.3 342 790.7 337 818 337.3C845.3 337.7 872.7 343.3 886.3 346.2L900 349L900 601L886.3 601C872.7 601 845.3 601 818 601C790.7 601 763.3 601 736.2 601C709 601 682 601 654.8 601C627.7 601 600.3 601 573 601C545.7 601 518.3 601 491 601C463.7 601 436.3 601 409 601C381.7 601 354.3 601 327 601C299.7 601 272.3 601 245.2 601C218 601 191 601 163.8 601C136.7 601 109.3 601 82 601C54.7 601 27.3 601 13.7 601L0 601Z" fill="#005188"></path><path d="M0 396L13.7 390C27.3 384 54.7 372 82 360.2C109.3 348.3 136.7 336.7 163.8 334.3C191 332 218 339 245.2 343.5C272.3 348 299.7 350 327 360.8C354.3 371.7 381.7 391.3 409 403.3C436.3 415.3 463.7 419.7 491 418.5C518.3 417.3 545.7 410.7 573 409.5C600.3 408.3 627.7 412.7 654.8 407.7C682 402.7 709 388.3 736.2 379.2C763.3 370 790.7 366 818 363C845.3 360 872.7 358 886.3 357L900 356L900 601L886.3 601C872.7 601 845.3 601 818 601C790.7 601 763.3 601 736.2 601C709 601 682 601 654.8 601C627.7 601 600.3 601 573 601C545.7 601 518.3 601 491 601C463.7 601 436.3 601 409 601C381.7 601 354.3 601 327 601C299.7 601 272.3 601 245.2 601C218 601 191 601 163.8 601C136.7 601 109.3 601 82 601C54.7 601 27.3 601 13.7 601L0 601Z" fill="#023b64"></path><path d="M0 471L13.7 466.7C27.3 462.3 54.7 453.7 82 454.8C109.3 456 136.7 467 163.8 468.2C191 469.3 218 460.7 245.2 449.8C272.3 439 299.7 426 327 433.3C354.3 440.7 381.7 468.3 409 467.8C436.3 467.3 463.7 438.7 491 432C518.3 425.3 545.7 440.7 573 450.2C600.3 459.7 627.7 463.3 654.8 470.3C682 477.3 709 487.7 736.2 476.8C763.3 466 790.7 434 818 424.2C845.3 414.3 872.7 426.7 886.3 432.8L900 439L900 601L886.3 601C872.7 601 845.3 601 818 601C790.7 601 763.3 601 736.2 601C709 601 682 601 654.8 601C627.7 601 600.3 601 573 601C545.7 601 518.3 601 491 601C463.7 601 436.3 601 409 601C381.7 601 354.3 601 327 601C299.7 601 272.3 601 245.2 601C218 601 191 601 163.8 601C136.7 601 109.3 601 82 601C54.7 601 27.3 601 13.7 601L0 601Z" fill="#032641"></path><path d="M0 552L13.7 538.8C27.3 525.7 54.7 499.3 82 500C109.3 500.7 136.7 528.3 163.8 538.2C191 548 218 540 245.2 532.8C272.3 525.7 299.7 519.3 327 524.2C354.3 529 381.7 545 409 544C436.3 543 463.7 525 491 512.8C518.3 500.7 545.7 494.3 573 492.7C600.3 491 627.7 494 654.8 499.8C682 505.7 709 514.3 736.2 510.5C763.3 506.7 790.7 490.3 818 491.8C845.3 493.3 872.7 512.7 886.3 522.3L900 532L900 601L886.3 601C872.7 601 845.3 601 818 601C790.7 601 763.3 601 736.2 601C709 601 682 601 654.8 601C627.7 601 600.3 601 573 601C545.7 601 518.3 601 491 601C463.7 601 436.3 601 409 601C381.7 601 354.3 601 327 601C299.7 601 272.3 601 245.2 601C218 601 191 601 163.8 601C136.7 601 109.3 601 82 601C54.7 601 27.3 601 13.7 601L0 601Z" fill="#001122"></path></svg>