<svg xmlns="http://www.w3.org/2000/svg" version="1.1" xmlns:xlink="http://www.w3.org/1999/xlink" xmlns:svgjs="http://svgjs.dev/svgjs" width="1500" height="272" viewBox="0 0 1500 272"><g transform="matrix(1,0,0,1,-0.9090909090909918,0.20798201364303281)"><svg viewBox="0 0 396 72" data-background-color="#ffffff" preserveAspectRatio="xMidYMid meet" height="272" width="1500" xmlns="http://www.w3.org/2000/svg" xmlns:xlink="http://www.w3.org/1999/xlink"><g id="tight-bounds" transform="matrix(1,0,0,1,0.2400000000000091,-0.055054062434919615)"><svg viewBox="0 0 395.52 72.11010812486984" height="72.11010812486984" width="395.52"><g><svg viewBox="0 0 395.52 72.11010812486984" height="72.11010812486984" width="395.52"><g><svg viewBox="0 0 507.07805251689933 92.44906248670621" height="72.11010812486984" width="395.52"><g transform="matrix(1,0,0,1,111.55805251689938,9.468968161219316)"><svg viewBox="0 0 395.52 73.51112616426758" height="73.51112616426758" width="395.52"><g id="textblocktransform"><svg viewBox="0 0 395.52 73.51112616426758" height="73.51112616426758" width="395.52" id="textblock"><g><svg viewBox="0 0 395.52 73.51112616426758" height="73.51112616426758" width="395.52"><g transform="matrix(1,0,0,1,0,0)"><svg width="395.52" viewBox="2.25 -43.65 236.18 43.9" height="73.51112616426758" data-palette-color="#000000"><path d="M15.4 0.25Q12.5 0.25 8.85-0.25L8.85-0.25Q6.85-0.5 6.1-1.3 5.35-2.1 5.45-3.9L5.45-3.9Q5.8-8.85 7.1-16.13 8.4-23.4 10.25-30.15L10.25-30.15Q10.6-31.4 11.65-31.9 12.7-32.4 14.4-32.4L14.4-32.4Q17.45-32.4 17.45-30.7L17.45-30.7Q17.45-30 17.15-29.1L17.15-29.1Q15.85-25.1 14.55-18.38 13.25-11.65 12.7-5.55L12.7-5.55Q14.2-5.4 16.1-5.4L16.1-5.4Q24.85-5.4 29.18-10.7 33.5-16 33.5-24.85L33.5-24.85Q33.5-30.8 30.1-34.05 26.7-37.3 20.5-37.3L20.5-37.3Q16.5-37.3 12.58-36.05 8.65-34.8 5.5-32.75L5.5-32.75Q4.85-32.3 4.1-32.3L4.1-32.3Q3.25-32.3 2.75-33.02 2.25-33.75 2.25-34.8L2.25-34.8Q2.25-36 2.65-36.77 3.05-37.55 4-38.2L4-38.2Q7.45-40.55 12.1-41.78 16.75-43 21.05-43L21.05-43Q27.15-43 31.6-40.88 36.05-38.75 38.45-34.65 40.85-30.55 40.85-24.75L40.85-24.75Q40.85-17.2 37.85-11.58 34.85-5.95 29.1-2.85 23.35 0.25 15.4 0.25L15.4 0.25ZM69.7-15.35Q70.35-15.35 70.7-14.7 71.05-14.05 71.05-13.05L71.05-13.05Q71.05-10.65 69.6-10.2L69.6-10.2Q66.6-9.15 63-9L63-9Q62.05-4.8 59.25-2.27 56.45 0.25 52.9 0.25L52.9 0.25Q49.9 0.25 47.77-1.2 45.65-2.65 44.55-5.05 43.45-7.45 43.45-10.25L43.45-10.25Q43.45-14.05 44.9-17.03 46.35-20 48.9-21.68 51.45-23.35 54.55-23.35L54.55-23.35Q58.35-23.35 60.67-20.73 63-18.1 63.4-14.25L63.4-14.25Q65.75-14.4 69-15.25L69-15.25Q69.4-15.35 69.7-15.35L69.7-15.35ZM53.3-5.05Q54.9-5.05 56.07-6.35 57.25-7.65 57.65-10.1L57.65-10.1Q56.1-11.15 55.27-12.85 54.45-14.55 54.45-16.45L54.45-16.45Q54.45-17.25 54.6-18.05L54.6-18.05 54.35-18.05Q52.35-18.05 51.02-16.13 49.7-14.2 49.7-10.7L49.7-10.7Q49.7-7.95 50.77-6.5 51.85-5.05 53.3-5.05L53.3-5.05ZM70.3 0.25Q68.4 0.25 67.62-1.75 66.85-3.75 66.85-8.15L66.85-8.15Q66.85-14.65 68.7-20.5L68.7-20.5Q69.15-21.95 70.17-22.63 71.2-23.3 73.05-23.3L73.05-23.3Q74.05-23.3 74.45-23.05 74.85-22.8 74.85-22.1L74.85-22.1Q74.85-21.3 74.1-18.5L74.1-18.5Q73.6-16.5 73.3-15 73-13.5 72.8-11.3L72.8-11.3Q74.45-15.6 76.5-18.3 78.55-21 80.52-22.15 82.5-23.3 84.15-23.3L84.15-23.3Q87.4-23.3 87.4-20.05L87.4-20.05Q87.4-18.1 86.3-13L86.3-13Q85.35-8.65 85.35-7.25L85.35-7.25Q85.35-5.25 86.8-5.25L86.8-5.25Q87.8-5.25 89.17-6.48 90.55-7.7 92.85-10.45L92.85-10.45Q93.45-11.15 94.2-11.15L94.2-11.15Q94.85-11.15 95.22-10.55 95.6-9.95 95.6-8.9L95.6-8.9Q95.6-6.9 94.65-5.8L94.65-5.8Q92.5-3.15 90.02-1.45 87.55 0.25 84.4 0.25L84.4 0.25Q81.85 0.25 80.55-1.23 79.25-2.7 79.25-5.5L79.25-5.5Q79.25-6.9 79.95-10.5L79.95-10.5Q80.6-13.65 80.6-14.85L80.6-14.85Q80.6-15.65 80.05-15.65L80.05-15.65Q79.4-15.65 78.22-13.98 77.05-12.3 75.82-9.55 74.6-6.8 73.85-3.75L73.85-3.75Q73.3-1.4 72.57-0.58 71.85 0.25 70.3 0.25L70.3 0.25ZM113.84-11.15Q114.49-11.15 114.87-10.55 115.24-9.95 115.24-8.9L115.24-8.9Q115.24-6.9 114.29-5.8L114.29-5.8Q112.44-3.55 109.07-1.65 105.69 0.25 101.84 0.25L101.84 0.25Q96.59 0.25 93.69-2.6 90.79-5.45 90.79-10.4L90.79-10.4Q90.79-13.85 92.24-16.82 93.69-19.8 96.27-21.55 98.84-23.3 102.09-23.3L102.09-23.3Q104.99-23.3 106.74-21.58 108.49-19.85 108.49-16.9L108.49-16.9Q108.49-13.45 106.02-10.98 103.54-8.5 97.64-7.05L97.64-7.05Q98.89-4.75 102.39-4.75L102.39-4.75Q104.64-4.75 107.52-6.33 110.39-7.9 112.49-10.45L112.49-10.45Q113.09-11.15 113.84-11.15L113.84-11.15ZM101.24-18.4Q99.39-18.4 98.12-16.25 96.84-14.1 96.84-11.05L96.84-11.05 96.84-10.95Q99.79-11.65 101.49-13.05 103.19-14.45 103.19-16.3L103.19-16.3Q103.19-17.25 102.67-17.82 102.14-18.4 101.24-18.4L101.24-18.4ZM133.64 0.25Q131.79 0.25 130.99-0.58 130.19-1.4 130.19-3.7L130.19-3.7Q130.19-5.25 130.49-7.45 130.79-9.65 131.54-14.1L131.54-14.1Q131.64-14.7 132.34-18.98 133.04-23.25 133.59-27.95L133.59-27.95Q134.09-31.95 134.09-33.95L134.09-33.95Q134.09-36.2 132.44-36.2L132.44-36.2Q131.19-36.2 129.31-34.88 127.44-33.55 125.29-30.65L125.29-30.65Q124.59-29.7 123.74-29.7L123.74-29.7Q123.04-29.7 122.51-30.38 121.99-31.05 121.99-31.9L121.99-31.9Q121.99-32.75 122.29-33.52 122.59-34.3 123.39-35.4L123.39-35.4Q125.84-38.75 128.84-40.58 131.84-42.4 135.14-42.4L135.14-42.4Q137.89-42.4 139.26-40.7 140.64-39 140.64-35.75L140.64-35.75Q140.64-32.85 139.84-27.35L139.84-27.35Q142.34-34.75 146.19-38.58 150.04-42.4 155.24-42.4L155.24-42.4Q159.34-42.4 161.41-40.08 163.49-37.75 163.49-33.85L163.49-33.85Q163.49-31.65 162.84-28.5L162.84-28.5 159.79-14.2Q159.29-11.7 159.29-9.9L159.29-9.9Q159.29-7.8 160.26-6.75 161.24-5.7 162.99-5.7L162.99-5.7Q164.64-5.7 166.21-6.8 167.79-7.9 169.94-10.45L169.94-10.45Q170.54-11.15 171.29-11.15L171.29-11.15Q171.94-11.15 172.31-10.55 172.69-9.95 172.69-8.9L172.69-8.9Q172.69-6.95 171.74-5.8L171.74-5.8Q169.14-2.65 166.59-1.2 164.04 0.25 161.24 0.25L161.24 0.25Q156.99 0.25 154.59-2.27 152.19-4.8 152.19-9.05L152.19-9.05Q152.19-10.7 152.46-12.65 152.74-14.6 153.39-17.6L153.39-17.6 155.39-26.75Q155.49-27.2 155.74-28.35 155.99-29.5 156.14-30.53 156.29-31.55 156.29-32.55L156.29-32.55Q156.29-34.15 155.39-35.1 154.49-36.05 152.84-36.05L152.84-36.05Q149.84-36.05 146.84-32.85 143.84-29.65 141.29-22.53 138.74-15.4 137.29-4.3L137.29-4.3Q136.94-1.75 136.26-0.75 135.59 0.25 133.64 0.25L133.64 0.25ZM190.94-11.15Q191.59-11.15 191.96-10.55 192.34-9.95 192.34-8.9L192.34-8.9Q192.34-6.9 191.39-5.8L191.39-5.8Q189.54-3.55 186.16-1.65 182.79 0.25 178.94 0.25L178.94 0.25Q173.69 0.25 170.79-2.6 167.89-5.45 167.89-10.4L167.89-10.4Q167.89-13.85 169.34-16.82 170.79-19.8 173.36-21.55 175.94-23.3 179.19-23.3L179.19-23.3Q182.09-23.3 183.84-21.58 185.59-19.85 185.59-16.9L185.59-16.9Q185.59-13.45 183.11-10.98 180.64-8.5 174.74-7.05L174.74-7.05Q175.99-4.75 179.49-4.75L179.49-4.75Q181.74-4.75 184.61-6.33 187.49-7.9 189.59-10.45L189.59-10.45Q190.19-11.15 190.94-11.15L190.94-11.15ZM178.34-18.4Q176.49-18.4 175.21-16.25 173.94-14.1 173.94-11.05L173.94-11.05 173.94-10.95Q176.89-11.65 178.59-13.05 180.29-14.45 180.29-16.3L180.29-16.3Q180.29-17.25 179.76-17.82 179.24-18.4 178.34-18.4L178.34-18.4ZM217.13-11.15Q217.78-11.15 218.16-10.55 218.53-9.95 218.53-8.9L218.53-8.9Q218.53-6.9 217.58-5.8L217.58-5.8Q215.38-3.2 212.76-1.48 210.13 0.25 206.83 0.25L206.83 0.25Q204.28 0.25 202.31-0.7 200.33-1.65 199.18-3.4L199.18-3.4Q196.33 0.2 192.43 0.2L192.43 0.2Q189.68 0.2 188.08-1.4 186.48-3 186.48-5.65L186.48-5.65Q186.48-8.15 187.63-9.7 188.78-11.25 190.88-11.25L190.88-11.25Q192.68-11.25 192.68-9.9L192.68-9.9Q192.68-9.55 192.58-8.65L192.58-8.65Q192.43-6.85 192.43-6.6L192.43-6.6Q192.43-5.1 193.73-5.1L193.73-5.1Q194.68-5.1 195.56-6.23 196.43-7.35 197.01-9.3 197.58-11.25 197.58-13.6L197.58-13.6Q197.58-15.4 197.13-16.63 196.68-17.85 196.03-17.85L196.03-17.85Q195.48-17.85 195.23-17.57 194.98-17.3 194.73-16.65L194.73-16.65Q194.43-15.85 193.93-15.38 193.43-14.9 192.18-14.9L192.18-14.9Q191.08-14.9 190.43-15.68 189.78-16.45 189.78-18.05L189.78-18.05Q189.78-20.6 191.33-22.05 192.88-23.5 195.33-23.5L195.33-23.5Q197.43-23.5 199.13-22.48 200.83-21.45 201.73-19.5L201.73-19.5Q203.23-21.5 205.11-22.5 206.98-23.5 208.78-23.5L208.78-23.5Q210.73-23.5 211.76-22.6 212.78-21.7 212.78-19.7L212.78-19.7Q212.78-17.45 211.93-16.18 211.08-14.9 209.88-14.9L209.88-14.9Q208.78-14.9 208.38-15.35 207.98-15.8 207.78-16.65L207.78-16.65Q207.68-17.25 207.48-17.55 207.28-17.85 206.78-17.85L206.78-17.85Q206.18-17.85 205.51-16.73 204.83-15.6 204.36-13.75 203.88-11.9 203.88-9.9L203.88-9.9Q203.88-7.55 205.01-6.28 206.13-5 208.08-5L208.08-5Q210.03-5 211.76-6.33 213.48-7.65 215.78-10.45L215.78-10.45Q216.38-11.15 217.13-11.15L217.13-11.15ZM237.03-11.15Q237.68-11.15 238.06-10.55 238.43-9.95 238.43-8.9L238.43-8.9Q238.43-6.9 237.48-5.8L237.48-5.8Q235.33-3.15 232.78-1.45 230.23 0.25 226.93 0.25L226.93 0.25Q216.73 0.25 216.73-14.1L216.73-14.1Q216.73-16.3 216.88-18.55L216.88-18.55 214.93-18.55Q213.43-18.55 212.91-19.1 212.38-19.65 212.38-20.85L212.38-20.85Q212.38-23.65 214.63-23.65L214.63-23.65 217.48-23.65Q218.33-29.15 220.08-33.7 221.83-38.25 224.31-40.95 226.78-43.65 229.63-43.65L229.63-43.65Q231.73-43.65 232.93-41.8 234.13-39.95 234.13-37.15L234.13-37.15Q234.13-29.4 227.63-23.65L227.63-23.65 233.23-23.65Q234.03-23.65 234.38-23.3 234.73-22.95 234.73-22L234.73-22Q234.73-18.55 229.08-18.55L229.08-18.55 222.98-18.55Q222.88-16.05 222.88-14.65L222.88-14.65Q222.88-9.45 224.11-7.35 225.33-5.25 227.98-5.25L227.98-5.25Q230.13-5.25 231.78-6.55 233.43-7.85 235.68-10.45L235.68-10.45Q236.28-11.15 237.03-11.15L237.03-11.15ZM228.28-38.85Q227.53-38.85 226.61-36.98 225.68-35.1 224.86-31.78 224.03-28.45 223.48-24.4L223.48-24.4Q226.43-26.95 227.91-30.13 229.38-33.3 229.38-35.9L229.38-35.9Q229.38-38.85 228.28-38.85L228.28-38.85Z" opacity="1" transform="matrix(1,0,0,1,0,0)" fill="#000000" class="wordmark-text-0" data-fill-palette-color="primary" id="text-0"></path></svg></g></svg></g></svg></g></svg></g><g><svg viewBox="0 0 94.20383989654376 92.44906248670621" height="92.44906248670621" width="94.20383989654376"><g><svg xmlns="http://www.w3.org/2000/svg" xmlns:xlink="http://www.w3.org/1999/xlink" version="1.1" x="0" y="0" viewBox="24.549999999999997 24.949999999999996 50.999999999999986 50.050000000000004" enable-background="new 0 0 100 100" xml:space="preserve" height="92.44906248670621" width="94.20383989654376" class="icon-icon-0" data-fill-palette-color="accent" id="icon-0"><path d="M51.8 25.7c-1-1-2.6-1-3.5 0l-23 23c-1 1-1 2.6 0 3.5 1 1 2.6 1 3.5 0l0.7-0.7v21c0 1.4 1.1 2.5 2.5 2.5h36c1.4 0 2.5-1.1 2.5-2.5v-21l0.7 0.7c0.5 0.5 1.1 0.7 1.8 0.7s1.3-0.2 1.8-0.7c1-1 1-2.6 0-3.5L51.8 25.7zM65 70H35c-0.3 0-0.5-0.2-0.5-0.5V46.7c0-0.1 0.1-0.3 0.1-0.4l15-15c0.2-0.2 0.5-0.2 0.7 0l15 15c0.1 0.1 0.1 0.2 0.1 0.4v22.8C65.5 69.8 65.3 70 65 70z" fill="#000000" data-fill-palette-color="accent"></path><path d="M46.5 50.5v10c0 1.4 1.1 2.5 2.5 2.5h10c1.4 0 2.5-1.1 2.5-2.5v-10c0-1.4-1.1-2.5-2.5-2.5H49C47.6 48 46.5 49.1 46.5 50.5zM51.5 53h5v5h-5V53z" fill="#000000" data-fill-palette-color="accent"></path></svg></g></svg></g></svg></g></svg></g><defs></defs></svg><rect width="395.52" height="72.11010812486984" fill="none" stroke="none" visibility="hidden"></rect></g></svg></g></svg>